{
  "accessors": [
    {
      "bufferView": 2,
      "componentType": 5126,
      "count": 21849,
      "max": [
        200.2798614501953,
        34.96525573730469,
        42.163665771484375
      ],
      "min": [
        106.50670623779297,
        -61.56351089477539,
        -26.78082847595215
      ],
      "type": "VEC3"
    },
    {
      "bufferView": 2,
      "byteOffset": 262188,
      "componentType": 5126,
      "count": 21849,
      "max": [
        1.0,
        1.0,
        1.0
      ],
      "min": [
        -1.0,
        -1.0,
        -1.0
      ],
      "type": "VEC3"
    },
    {
      "bufferView": 3,
      "componentType": 5126,
      "count": 21849,
      "max": [
        1.0,
        1.0,
        1.0,
        1.0
      ],
      "min": [
        -1.0,
        -1.0,
        -1.0,
        -1.0
      ],
      "type": "VEC4"
    },
    {
      "bufferView": 1,
      "componentType": 5126,
      "count": 21849,
      "max": [
        0.999500036239624,
        0.9845604300498962
      ],
      "min": [
        0.0005000000237487257,
        0.0005000000237487257
      ],
      "type": "VEC2"
    },
    {
      "bufferView": 1,
      "byteOffset": 174792,
      "componentType": 5126,
      "count": 21849,
      "max": [
        0.999500036239624,
        0.9845604300498962
      ],
      "min": [
        0.0005000000237487257,
        0.0005000000237487257
      ],
      "type": "VEC2"
    },
    {
      "bufferView": 0,
      "componentType": 5125,
      "count": 102552,
      "type": "SCALAR"
    }
  ],
  "asset": {
    "extras": {
      "author": "Mohamed Fsili (https://sketchfab.com/medraphc)",
      "license": "CC-BY-4.0 (http://creativecommons.org/licenses/by/4.0/)",
      "source": "https://sketchfab.com/3d-models/3d-bulldozer-a594f41875f54379805e77ea94df7524",
      "title": "3D bulldozer"
    },
    "generator": "Sketchfab-11.53.2",
    "version": "2.0"
  },
  "bufferViews": [
    {
      "buffer": 0,
      "byteLength": 410208,
      "name": "floatBufferViews",
      "target": 34963
    },
    {
      "buffer": 0,
      "byteLength": 349584,
      "byteOffset": 410208,
      "byteStride": 8,
      "name": "floatBufferViews",
      "target": 34962
    },
    {
      "buffer": 0,
      "byteLength": 524376,
      "byteOffset": 759792,
      "byteStride": 12,
      "name": "floatBufferViews",
      "target": 34962
    },
    {
      "buffer": 0,
      "byteLength": 349584,
      "byteOffset": 1284168,
      "byteStride": 16,
      "name": "floatBufferViews",
      "target": 34962
    }
  ],
  "buffers": [
    {
      "byteLength": 1633752,
      "uri": "scene.bin"
    }
  ],
  "images": [
    {
      "uri": "textures/Modelling_Material_baseColor.png"
    },
    {
      "uri": "textures/Modelling_Material_metallicRoughness.png"
    },
    {
      "uri": "textures/Modelling_Material_normal.png"
    }
  ],
  "materials": [
    {
      "doubleSided": true,
      "name": "Modelling_Material",
      "normalTexture": {
        "index": 2
      },
      "pbrMetallicRoughness": {
        "baseColorTexture": {
          "index": 0
        },
        "metallicRoughnessTexture": {
          "index": 1
        }
      }
    }
  ],
  "meshes": [
    {
      "name": "SM_LP_Mesh_Modelling Material_0",
      "primitives": [
        {
          "attributes": {
            "NORMAL": 1,
            "POSITION": 0,
            "TANGENT": 2,
            "TEXCOORD_0": 3,
            "TEXCOORD_1": 4
          },
          "indices": 5,
          "material": 0,
          "mode": 4
        }
      ]
    }
  ],
  "nodes": [
    {
      "children": [
        1
      ],
      "matrix": [
        -1.0,
        -3.1450057482662597e-32,
        2.832769343193999e-16,
        0.0,
        -2.832769343193999e-16,
        -6.123232939436859e-17,
        -1.0,
        0.0,
        4.8795769672831353e-32,
        -1.0,
        6.123232939436859e-17,
        0.0,
        -0.07710737735033035,
        -0.33091628551483154,
        -1.7967024649141804e-17,
        1.0
      ],
      "name": "Sketchfab_model"
    },
    {
      "children": [
        2
      ],
      "matrix": [
        0.009999999776482582,
        0.0,
        0.0,
        0.0,
        0.0,
        -0.009999999776482582,
        0.0,
        0.0,
        0.0,
        0.0,
        -0.009999999776482582,
        0.0,
        0.0,
        0.0,
        0.0,
        1.0
      ],
      "name": "8d517abf42b7445fbde43eb74620ed30.fbx"
    },
    {
      "children": [
        3
      ],
      "name": "RootNode"
    },
    {
      "children": [
        4
      ],
      "matrix": [
        1.0,
        0.0,
        0.0,
        0.0,
        0.0,
        1.0,
        0.0,
        0.0,
        0.0,
        0.0,
        1.0,
        0.0,
        -157.2486572265625,
        -9.5367431640625e-07,
        8.85441780090332,
        1.0
      ],
      "name": "SM_LP_Mesh"
    },
    {
      "mesh": 0,
      "name": "SM_LP_Mesh_Modelling Material_0"
    }
  ],
  "samplers": [
    {
      "magFilter": 9729,
      "minFilter": 9987,
      "wrapS": 10497,
      "wrapT": 10497
    }
  ],
  "scene": 0,
  "scenes": [
    {
      "name": "Sketchfab_Scene",
      "nodes": [
        0
      ]
    }
  ],
  "textures": [
    {
      "sampler": 0,
      "source": 0
    },
    {
      "sampler": 0,
      "source": 1
    },
    {
      "sampler": 0,
      "source": 2
    }
  ]
}
